<svg width="16" height="22" viewBox="0 0 16 22" fill="none" xmlns="http://www.w3.org/2000/svg">
<g opacity="0.75">
<path d="M5.44434 7.67709L5.45485 7.66541" stroke="black" stroke-width="1.7" stroke-linecap="round" stroke-linejoin="round"/>
<path d="M9.88892 7.67709L9.89943 7.66541" stroke="black" stroke-width="1.7" stroke-linecap="round" stroke-linejoin="round"/>
<path d="M5.44434 12.1217L5.45485 12.11" stroke="black" stroke-width="1.7" stroke-linecap="round" stroke-linejoin="round"/>
<path d="M9.88892 12.1217L9.89943 12.11" stroke="black" stroke-width="1.7" stroke-linecap="round" stroke-linejoin="round"/>
<path d="M5.44434 16.566L5.45485 16.5543" stroke="black" stroke-width="1.7" stroke-linecap="round" stroke-linejoin="round"/>
<path d="M9.88892 16.566L9.89943 16.5543" stroke="black" stroke-width="1.7" stroke-linecap="round" stroke-linejoin="round"/>
<path d="M1 20.3333V3.88889C1 3.5207 1.29848 3.22222 1.66667 3.22222H7.66667V1.66667C7.66667 1.29848 7.96511 1 8.33333 1H13.6667C14.0349 1 14.3333 1.29848 14.3333 1.66667V20.3333C14.3333 20.7016 14.0349 21 13.6667 21H1.66667C1.29848 21 1 20.7016 1 20.3333Z" stroke="black" stroke-width="1.7" stroke-linecap="round" stroke-linejoin="round"/>
</g>
</svg>
